<svg xmlns="http://www.w3.org/2000/svg" width="167" height="196" viewBox="0 0 167 196">
  <!-- Generated by tools/import_kicad_board.py from XIAO-RP2040-SMD.kicad_mod
       Source: Seeed Studio OSHW-XIAO-Series, MIT. Outline is the vendor's
       F.SilkS and F.CrtYd geometry; nothing here is traced or redrawn. -->
  <rect x="0" y="0" width="167" height="196" rx="16" fill="#1c6b45" stroke="#0d3b26" stroke-width="1"/>
  <g stroke="#e8f3ee" stroke-width="1.2" fill="none" stroke-linecap="round">
    <line x1="12.3" y1="171.7" x2="12.3" y2="34.5"/>
    <line x1="27.6" y1="186.9" x2="139.3" y2="186.9"/>
    <line x1="47.5" y1="19.3" x2="47.5" y2="12.0"/>
    <line x1="51.5" y1="8.0" x2="115.5" y2="8.0"/>
    <line x1="119.5" y1="12.0" x2="119.5" y2="19.3"/>
    <line x1="139.3" y1="19.3" x2="27.6" y2="19.3"/>
    <line x1="154.6" y1="171.7" x2="154.6" y2="34.5"/>
    <line x1="154.7" y1="187.6" x2="12.3" y2="187.6"/>
    <line x1="12.3" y1="187.6" x2="12.3" y2="19.6"/>
    <line x1="12.3" y1="19.6" x2="154.7" y2="19.6"/>
    <line x1="154.7" y1="19.6" x2="154.7" y2="187.6"/>
  </g>
  <g fill="#f2c14e" stroke="#8a6d1f" stroke-width="0.8">
    <circle cx="74.3" cy="36.6" r="4.0"/>
    <circle cx="94.6" cy="36.6" r="4.0"/>
    <circle cx="19.0" cy="42.6" r="4.0"/>
    <circle cx="148.3" cy="42.6" r="4.0"/>
    <circle cx="74.3" cy="56.9" r="4.0"/>
    <circle cx="94.6" cy="56.9" r="4.0"/>
    <circle cx="19.0" cy="62.9" r="4.0"/>
    <circle cx="148.3" cy="62.9" r="4.0"/>
    <circle cx="19.0" cy="83.3" r="4.0"/>
    <circle cx="148.3" cy="83.3" r="4.0"/>
    <circle cx="19.0" cy="103.6" r="4.0"/>
    <circle cx="148.3" cy="103.6" r="4.0"/>
    <circle cx="19.0" cy="123.9" r="4.0"/>
    <circle cx="148.3" cy="123.9" r="4.0"/>
    <circle cx="19.0" cy="144.2" r="4.0"/>
    <circle cx="148.3" cy="144.2" r="4.0"/>
    <circle cx="19.0" cy="164.5" r="4.0"/>
    <circle cx="148.3" cy="164.5" r="4.0"/>
    <circle cx="74.3" cy="172.7" r="4.0"/>
    <circle cx="94.6" cy="172.7" r="4.0"/>
  </g>
  <g font-family="monospace" font-size="7" fill="#e8f3ee" text-anchor="middle">
    <text x="74.3" y="27.6">SWDIO</text>
    <text x="94.6" y="27.6">SWCLK</text>
    <text x="19.0" y="33.6">D0</text>
    <text x="148.3" y="33.6">VBUS</text>
    <text x="74.3" y="47.9">EN</text>
    <text x="94.6" y="47.9">GND</text>
    <text x="19.0" y="53.9">D1</text>
    <text x="148.3" y="53.9">GND</text>
    <text x="19.0" y="74.3">D2</text>
    <text x="148.3" y="74.3">3V3_OUT</text>
    <text x="19.0" y="94.6">D3</text>
    <text x="148.3" y="94.6">D10</text>
    <text x="19.0" y="114.9">D4</text>
    <text x="148.3" y="114.9">D9</text>
    <text x="19.0" y="135.2">D5</text>
    <text x="148.3" y="135.2">D8</text>
    <text x="19.0" y="155.5">D6</text>
    <text x="148.3" y="155.5">D7</text>
    <text x="74.3" y="163.7">VIN</text>
    <text x="94.6" y="163.7">GND</text>
  </g>
</svg>
